<svg xmlns="http://www.w3.org/2000/svg" viewBox="0 0 720 420" role="img" aria-labelledby="title desc">
  <title id="title">Civil infrastructure</title>
  <desc id="desc">Bridge, road, and utility work for infrastructure projects.</desc>
  <defs>
    <linearGradient id="bg" x1="0" x2="1" y1="0" y2="1">
      <stop offset="0" stop-color="#e4fbf2" />
      <stop offset="1" stop-color="#d8f1ff" />
    </linearGradient>
  </defs>
  <rect width="720" height="420" fill="url(#bg)" />
  <path fill="#b9e4dc" d="M0 286c100-28 190-28 292 0s207 28 428-18v152H0z" />
  <path fill="#11434e" d="M0 315h720v84H0z" />
  <path fill="#2fd0aa" d="M0 308h720v18H0z" />
  <path stroke="#ffffff" stroke-width="8" stroke-dasharray="44 28" d="M42 356h636" opacity=".9" />
  <path fill="#ffffff" stroke="#11434e" stroke-width="12" d="M80 210h560v54H80z" />
  <path stroke="#11434e" stroke-width="12" stroke-linecap="round" d="M128 210l62-86 62 86M298 210l62-86 62 86M468 210l62-86 62 86" />
  <path stroke="#2fd0aa" stroke-width="10" stroke-linecap="round" d="M104 264v48M236 264v48M368 264v48M500 264v48M632 264v48" />
  <circle cx="108" cy="110" r="28" fill="#ffffff" opacity=".8" />
</svg>
