<svg xmlns="http://www.w3.org/2000/svg" viewBox="0 0 720 420" role="img" aria-labelledby="title desc">
  <title id="title">Structural and architectural works</title>
  <desc id="desc">Structural frame and architectural grid illustration.</desc>
  <defs>
    <linearGradient id="bg" x1="0" x2="1" y1="0" y2="1">
      <stop offset="0" stop-color="#e7e9ff" />
      <stop offset="1" stop-color="#e4fff7" />
    </linearGradient>
  </defs>
  <rect width="720" height="420" fill="url(#bg)" />
  <path fill="#ffffff" stroke="#11434e" stroke-width="12" d="M126 88h468v250H126z" />
  <path stroke="#11434e" stroke-width="10" d="M190 88v250M270 88v250M350 88v250M430 88v250M510 88v250M126 150h468M126 212h468M126 274h468" opacity=".85" />
  <path fill="#2fd0aa" d="M190 150h80v62h-80zM350 88h80v62h-80zM430 212h80v62h-80z" opacity=".75" />
  <path stroke="#11434e" stroke-width="12" stroke-linecap="round" d="M104 356h512" />
  <path fill="#11434e" d="M92 338h64v28H92zM564 338h64v28h-64z" />
  <path stroke="#2fd0aa" stroke-width="10" stroke-linecap="round" d="M120 70h488" opacity=".9" />
</svg>
