<svg xmlns="http://www.w3.org/2000/svg" viewBox="0 0 720 420" role="img" aria-labelledby="title desc">
  <title id="title">Office renovation</title>
  <desc id="desc">Office renovation with interior layout and finishing details.</desc>
  <defs>
    <linearGradient id="room" x1="0" x2="1" y1="0" y2="1">
      <stop offset="0" stop-color="#fff4d8" />
      <stop offset="1" stop-color="#e6fff6" />
    </linearGradient>
  </defs>
  <rect width="720" height="420" fill="url(#room)" />
  <path fill="#ffffff" d="M80 82h560v256H80z" />
  <path fill="#d8f4ef" d="M112 112h218v176H112z" />
  <path fill="#f5fbfa" stroke="#11434e" stroke-width="10" d="M372 112h154v176H372z" />
  <path fill="#2fd0aa" d="M396 138h106v32H396zM396 194h106v32H396z" opacity=".9" />
  <path stroke="#11434e" stroke-width="12" stroke-linecap="round" d="M112 320h496M156 156h132M156 198h132M156 240h86" />
  <path fill="#11434e" d="M520 270h58v50h-58z" />
  <path fill="#2fd0aa" d="M570 252h34v68h-34z" />
  <path fill="#ffffff" stroke="#11434e" stroke-width="8" d="M548 92l72 48-72 48-72-48z" />
</svg>
