<svg xmlns="http://www.w3.org/2000/svg" viewBox="0 0 720 420" role="img" aria-labelledby="title desc">
  <title id="title">Site development</title>
  <desc id="desc">Outdoor site development with drainage, access, and support areas.</desc>
  <defs>
    <linearGradient id="bg" x1="0" x2="1" y1="0" y2="1">
      <stop offset="0" stop-color="#e0f7fa" />
      <stop offset="1" stop-color="#effff9" />
    </linearGradient>
  </defs>
  <rect width="720" height="420" fill="url(#bg)" />
  <path fill="#b7e7dc" d="M0 260h720v160H0z" />
  <path fill="#ffffff" stroke="#11434e" stroke-width="10" d="M92 132h190v94H92z" />
  <path fill="#2fd0aa" d="M118 160h44v42h-44zM180 160h74v42h-74z" opacity=".85" />
  <path stroke="#11434e" stroke-width="18" stroke-linecap="round" d="M342 338c42-86 94-128 180-138 54-6 94-26 120-64" />
  <path stroke="#ffffff" stroke-width="8" stroke-linecap="round" stroke-dasharray="28 22" d="M362 336c40-70 88-104 164-114 48-6 82-22 104-54" />
  <path fill="#11434e" d="M74 246h218v34H74z" />
  <path fill="#2fd0aa" d="M98 284h82v46H98zM204 284h82v46h-82z" />
  <path stroke="#11434e" stroke-width="10" d="M474 114v74M532 100v96M590 88v118" opacity=".75" />
  <circle cx="474" cy="104" r="16" fill="#2fd0aa" />
  <circle cx="532" cy="90" r="16" fill="#2fd0aa" />
  <circle cx="590" cy="78" r="16" fill="#2fd0aa" />
</svg>
